<svg width="12" height="8" viewBox="0 0 12 8" fill="none" xmlns="http://www.w3.org/2000/svg">
  <path d="M6.00009 3.53027L11.0448 0.289484C10.842 0.137353 10.5957 0.0543402 10.3422 0.0526428H1.65798C1.40444 0.0543402 1.15817 0.137353 0.955353 0.289484L6.00009 3.53027Z" fill="white" />
  <path d="M6.21315 4.33158L6.14605 4.36315H6.11447C6.07811 4.37938 6.03951 4.39004 5.99999 4.39473C5.96723 4.39888 5.93407 4.39888 5.90131 4.39473H5.86973L5.80263 4.36315L0.513152 0.944733C0.487889 1.04006 0.474626 1.13819 0.473679 1.23684V6.76315C0.473679 7.07725 0.598455 7.37843 0.820534 7.60051C1.04261 7.82259 1.34384 7.94736 1.65789 7.94736H10.3421C10.6562 7.94736 10.9574 7.82259 11.1795 7.60051C11.4015 7.37843 11.5263 7.07725 11.5263 6.76315V1.23684C11.5254 1.13819 11.5121 1.04006 11.4868 0.944733L6.21315 4.33158Z" fill="white" />
</svg>