<svg width="16" height="16" viewBox="0 0 16 16" fill="none" xmlns="http://www.w3.org/2000/svg">
  <path fill-rule="evenodd" clip-rule="evenodd" d="M4.5653 13.1855L4.82844 13.3412C6.0274 14.05 7.42777 14.3434 8.81132 14.1755C10.1949 14.0076 11.4839 13.3879 12.4775 12.413C13.4711 11.4381 14.1134 10.1627 14.3045 8.78563C14.4955 7.40855 14.2245 6.00711 13.5336 4.79971C12.8428 3.59231 11.7709 2.64677 10.4851 2.11044C9.19921 1.57412 7.77161 1.47712 6.42472 1.83459C5.07784 2.19205 3.88733 2.98388 3.03872 4.08669C2.19012 5.1895 1.73108 6.54133 1.73315 7.93153C1.73202 9.08424 2.05163 10.2146 2.65639 11.1969L2.82141 11.4683L2.18808 13.8172L4.5653 13.1855ZM10.4239 8.75677C10.6171 8.80071 10.7977 8.88806 10.952 9.01217C11.2553 9.19012 11.7504 9.40811 11.8306 9.77735C11.8641 9.95792 11.8407 10.1444 11.7637 10.3112C11.6327 10.5873 11.4356 10.8271 11.1898 11.0094C10.9441 11.1917 10.6572 11.3109 10.3543 11.3566C9.82286 11.4168 9.28496 11.3322 8.79778 11.112C8.32879 10.9518 7.87983 10.7383 7.45976 10.4758C6.62265 9.95916 5.89407 9.28531 5.31447 8.49167C5.13612 8.25004 4.97086 7.99907 4.8194 7.73983C4.60946 7.40141 4.4502 7.03422 4.34663 6.64989C4.30585 6.48993 4.28488 6.32559 4.28419 6.16053C4.27395 5.86662 4.32995 5.57415 4.44805 5.30468C4.56614 5.03521 4.74334 4.7956 4.96658 4.60348C5.09517 4.48933 5.25413 4.41473 5.42428 4.38868C5.59443 4.36263 5.7685 4.38624 5.9255 4.45667C6.22988 4.7132 6.45429 5.05127 6.57221 5.43094C6.72473 5.70176 6.79595 6.01062 6.77737 6.32069C6.69369 6.6018 6.54029 6.85732 6.33136 7.06363C6.27168 7.11457 6.23414 7.18663 6.22665 7.26463C6.21917 7.34263 6.24231 7.42049 6.29122 7.48181C6.86464 8.46442 7.75427 9.2248 8.81562 9.63944C8.87467 9.67171 8.9435 9.68138 9.00919 9.66664C9.07488 9.6519 9.13293 9.61375 9.17243 9.55936C9.35975 9.33248 9.54708 8.87871 9.83698 8.75859C10.0299 8.71345 10.2307 8.71283 10.4239 8.75677Z" fill="#272727" />
  <path fill-rule="evenodd" clip-rule="evenodd" d="M0.105225 15.8948L1.23808 11.6863C0.324461 10.0468 0.0341942 8.13377 0.420547 6.29811C0.8069 4.46244 1.84396 2.82731 3.34142 1.69277C4.83887 0.558233 6.69629 0.00038109 8.57282 0.121584C10.4494 0.242787 12.2191 1.03492 13.5574 2.35261C14.8957 3.67031 15.7126 5.42519 15.8584 7.29522C16.0042 9.16525 15.469 11.025 14.3511 12.5332C13.2331 14.0414 11.6074 15.0969 9.77216 15.506C7.93697 15.9151 6.01542 15.6503 4.36013 14.7603L0.105225 15.8948ZM4.82844 13.3412L4.5653 13.1855L2.18808 13.8172L2.82141 11.4683L2.65639 11.1969C2.05163 10.2146 1.73202 9.08424 1.73315 7.93153C1.73108 6.54133 2.19012 5.1895 3.03872 4.08669C3.88733 2.98388 5.07784 2.19205 6.42472 1.83459C7.77161 1.47712 9.19921 1.57412 10.4851 2.11044C11.7709 2.64677 12.8428 3.59231 13.5336 4.79971C14.2245 6.00711 14.4955 7.40855 14.3045 8.78563C14.1134 10.1627 13.4711 11.4381 12.4775 12.413C11.4839 13.3879 10.1949 14.0076 8.81132 14.1755C7.42777 14.3434 6.0274 14.05 4.82844 13.3412Z" fill="#272727" />
</svg>